<?xml version="1.0" encoding="UTF-8"?>
<svg version="1.1" xmlns="http://www.w3.org/2000/svg" width="512" height="512">
<path d="M0 0 C0.9469725 -0.00014603 1.89394501 -0.00029205 2.86961365 -0.0004425 C5.98617884 0.00025175 9.10268358 0.00802133 12.21923828 0.01586914 C14.38542651 0.01773505 16.55161516 0.01915814 18.71780396 0.02015686 C24.4092323 0.02396841 30.10063499 0.03378707 35.79205322 0.04486084 C41.60371554 0.05510425 47.41538203 0.05966076 53.22705078 0.06469727 C64.62289537 0.07541057 76.01872094 0.09247063 87.41455078 0.11352539 C86.64428127 4.50447848 85.09778407 7.8034845 82.85205078 11.61352539 C82.03267835 13.03574505 81.21512485 14.45901345 80.39892578 15.88305664 C79.93292969 16.69468262 79.46693359 17.50630859 78.98681641 18.3425293 C76.15247892 23.33782906 73.40189137 28.37960414 70.63821411 33.41421509 C63.69532533 46.05692663 56.62899807 58.62330574 49.41455078 71.11352539 C52.08567321 72.52825731 54.62605981 73.55716392 57.54052734 74.3503418 C58.3410553 74.57041901 59.14158325 74.79049622 59.96636963 75.01724243 C60.82067566 75.24753143 61.67498169 75.47782043 62.55517578 75.71508789 C63.43735779 75.95641449 64.31953979 76.19774109 65.22845459 76.44638062 C68.03942887 77.21437083 70.85194919 77.97651888 73.66455078 78.73852539 C75.57350986 79.25897405 77.48236532 79.77980296 79.39111328 80.30102539 C84.06440256 81.57627012 88.73908671 82.8462785 93.41455078 84.11352539 C94.45761921 87.70426563 94.27610306 89.14824474 92.60595703 92.53540039 C92.19321533 93.38666504 91.78047363 94.23792969 91.35522461 95.11499023 C90.90042725 96.02200684 90.44562988 96.92902344 89.97705078 97.86352539 C89.51258545 98.81308105 89.04812012 99.76263672 88.56958008 100.7409668 C87.19730116 103.53834995 85.80924215 106.32726045 84.41455078 109.11352539 C84.07746094 109.78931641 83.74037109 110.46510742 83.39306641 111.16137695 C82.20828805 113.53478869 81.02084315 115.90682445 79.82495117 118.2746582 C73.51875359 130.8026163 67.50721104 143.48077513 61.41455078 156.11352539 C64.16004375 153.40872563 66.84379723 150.73196274 69.25439453 147.72290039 C69.75261719 147.10479492 70.25083984 146.48668945 70.76416016 145.84985352 C71.55016602 144.86662109 71.55016602 144.86662109 72.35205078 143.86352539 C73.5064532 142.43079403 74.66142012 140.99851735 75.81689453 139.56665039 C76.70610596 138.46353516 76.70610596 138.46353516 77.61328125 137.33813477 C80.52355371 133.74388122 83.46918624 130.17903157 86.41455078 126.61352539 C91.47523581 120.48114121 96.50272387 114.3230647 101.5090332 108.14624023 C105.55708176 103.15654156 109.63696468 98.19380096 113.72705078 93.23852539 C118.67812836 87.23971222 123.58841237 81.21364444 128.41455078 75.11352539 C125.91539424 74.13216468 123.4153455 73.153199 120.91455078 72.17602539 C120.13023682 71.86898682 119.34592285 71.56194824 118.5378418 71.24560547 C113.67929554 69.353379 108.8053328 67.5118996 103.91064453 65.71508789 C102.82267578 65.31410889 101.73470703 64.91312988 100.61376953 64.5 C98.45319002 63.70579297 96.29044108 62.91746105 94.12548828 62.13525391 C93.13677734 61.77101318 92.14806641 61.40677246 91.12939453 61.03149414 C90.24372803 60.70947021 89.35806152 60.38744629 88.44555664 60.05566406 C86.41455078 59.11352539 86.41455078 59.11352539 85.41455078 57.11352539 C85.91341797 56.50508789 86.41228516 55.89665039 86.92626953 55.26977539 C99.23576576 40.24458072 99.23576576 40.24458072 111.41455078 25.11352539 C114.98407027 20.64399885 118.56899856 16.18712437 122.16455078 11.73852539 C122.72013672 11.04758789 123.27572266 10.35665039 123.84814453 9.64477539 C131.41119509 0.30541513 131.41119509 0.30541513 134.82470703 -0.34741211 C148.14006448 0.08401332 158.26732252 2.1699855 168.28955078 11.48852539 C177.57559527 21.4503149 178.86318573 34.33951513 178.75512695 47.37573242 C178.75427902 48.78605633 178.75475905 50.19638156 178.75645447 51.60670471 C178.75730939 55.40569655 178.73976607 59.20439977 178.7187326 63.00332499 C178.69988109 66.98445041 178.69820872 70.96558365 178.69465637 74.94674683 C178.68536065 82.47237013 178.66078066 89.99786149 178.6306079 97.52342689 C178.59698653 106.096633 178.5805585 114.66984566 178.5655216 123.24310136 C178.53422867 140.86665062 178.48151671 158.49007737 178.41455078 176.11352539 C175.41455078 176.11352539 175.41455078 176.11352539 173.84741211 174.64038086 C173.29851318 173.96894043 172.74961426 173.2975 172.18408203 172.60571289 C168.61799168 168.35185649 164.90364966 164.2821885 161.10205078 160.23852539 C160.44978516 159.54307617 159.79751953 158.84762695 159.12548828 158.13110352 C154.68644657 153.41626336 150.15267219 148.82214932 145.54345703 144.27368164 C143.55909791 142.26019431 141.69371805 140.19474288 139.85205078 138.05102539 C137.23605746 135.02067851 134.55840931 132.06804567 131.78955078 129.17602539 C131.07541016 128.42450195 130.36126953 127.67297852 129.62548828 126.89868164 C126.98318398 124.765231 125.8234182 124.10864163 122.41455078 124.11352539 C115.84973153 126.81177737 110.21645218 130.81866005 104.41455078 134.86352539 C102.47139109 136.20460264 100.5273478 137.54440031 98.58251953 138.88305664 C97.57624512 139.57608887 96.5699707 140.26912109 95.53320312 140.9831543 C89.33442407 145.21757938 83.06624842 149.34902615 76.79931641 153.48168945 C70.95725294 157.35291207 65.28949645 161.37859234 59.71606445 165.62939453 C57.41455078 167.11352539 57.41455078 167.11352539 54.41455078 167.11352539 C55.80009285 157.43847717 57.58815361 147.87354506 59.53955078 138.30102539 C59.81977301 136.91501311 60.09972232 135.52894563 60.37939453 134.14282227 C61.05464928 130.79908387 61.73354374 127.4560976 62.41455078 124.11352539 C54.87443908 123.84813651 47.33950283 123.71257707 39.79492188 123.66186523 C37.23612808 123.62998898 34.6775087 123.56974897 32.12011719 123.47924805 C14.77895536 122.59870372 14.77895536 122.59870372 0.0880127 130.55212402 C-2.43766866 133.25051461 -4.76272062 136.02805285 -6.97644043 138.98718262 C-10.92923264 144.21089003 -15.38692898 149.05525949 -20.08544922 153.61352539 C-23.506432 156.98820045 -26.69319369 160.4759715 -29.81591797 164.12524414 C-32.40612994 167.03565892 -35.1870101 169.73897629 -37.98388672 172.44946289 C-39.67173646 174.03775272 -39.67173646 174.03775272 -40.58544922 176.11352539 C-41.57544922 176.11352539 -42.56544922 176.11352539 -43.58544922 176.11352539 C-43.67913041 157.69320168 -43.74954447 139.2729403 -43.79269791 120.85242939 C-43.81327253 112.29834819 -43.84129485 103.74441552 -43.88720703 95.19042969 C-43.92723178 87.72974818 -43.95291904 80.26917431 -43.9618032 72.80838841 C-43.96699166 68.86246765 -43.97907821 64.91685465 -44.00836945 60.9710331 C-44.03578669 57.24701952 -44.043842 53.52343659 -44.03787994 49.79933167 C-44.03948246 47.80148281 -44.06086615 45.80367942 -44.08312988 43.80595398 C-44.02309202 30.47326036 -41.00695218 19.88690995 -31.77294922 10.21508789 C-22.67125723 1.51709999 -12.1310467 -0.04925683 0 0 Z " fill="#EF7332" transform="translate(188.58544921875,195.886474609375)"/>
<path d="M0 0 C10.21648414 1.39315693 18.7826066 6.68394441 25.1875 14.75 C31.64534259 24.72840839 32.62434538 35.3982841 32.52807617 47.01220703 C32.52722824 48.42253094 32.52770827 49.83285617 32.52940369 51.24317932 C32.53025861 55.04217116 32.51271529 58.84087438 32.49168181 62.63979959 C32.47283031 66.62092502 32.47115793 70.60205826 32.46760559 74.58322144 C32.45830987 82.10884474 32.43372988 89.6343361 32.40355712 97.1599015 C32.36993575 105.73310761 32.35350772 114.30632027 32.33847082 122.87957597 C32.30717789 140.50312523 32.25446593 158.12655198 32.1875 175.75 C29.1875 175.75 29.1875 175.75 27.62036133 174.27685547 C26.79701294 173.26969482 26.79701294 173.26969482 25.95703125 172.2421875 C22.3909409 167.9883311 18.67659888 163.91866311 14.875 159.875 C14.22273438 159.17955078 13.57046875 158.48410156 12.8984375 157.76757812 C8.45939579 153.05273797 3.92562141 148.45862393 -0.68359375 143.91015625 C-2.66795288 141.89666892 -4.53333273 139.83121749 -6.375 137.6875 C-8.99099332 134.65715312 -11.66864147 131.70452028 -14.4375 128.8125 C-15.15164063 128.06097656 -15.86578125 127.30945313 -16.6015625 126.53515625 C-19.2438668 124.40170561 -20.40363258 123.74511624 -23.8125 123.75 C-30.37731925 126.44825198 -36.0105986 130.45513466 -41.8125 134.5 C-43.75565969 135.84107725 -45.69970298 137.18087492 -47.64453125 138.51953125 C-48.65080566 139.21256348 -49.65708008 139.9055957 -50.69384766 140.61962891 C-56.89262671 144.85405399 -63.16080236 148.98550076 -69.42773438 153.11816406 C-75.26979784 156.98938668 -80.93755433 161.01506695 -86.51098633 165.26586914 C-88.8125 166.75 -88.8125 166.75 -91.8125 166.75 C-91.3175 162.79 -91.3175 162.79 -90.8125 158.75 C-90.1525 159.41 -89.4925 160.07 -88.8125 160.75 C-88.420625 160.193125 -88.02875 159.63625 -87.625 159.0625 C-85.8125 156.75 -85.8125 156.75 -83.49609375 154.45703125 C-80.84919057 151.78701101 -78.45407076 149.02458416 -76.0625 146.125 C-75.63203369 145.60429932 -75.20156738 145.08359863 -74.75805664 144.54711914 C-73.43980306 142.95057564 -72.12553491 141.35083703 -70.8125 139.75 C-70.04292969 138.81285156 -69.27335937 137.87570312 -68.48046875 136.91015625 C-66.25440211 134.1928735 -64.03321468 131.47165742 -61.8125 128.75 C-60.39596596 127.02072468 -58.9792969 125.29155996 -57.5625 123.5625 C-54.45231531 119.762361 -51.35312949 115.95351942 -48.25952148 112.13989258 C-43.03246301 105.69644021 -37.78142219 99.2739879 -32.5 92.875 C-27.5489414 86.8761703 -22.63863897 80.85011976 -17.8125 74.75 C-20.31165655 73.76863929 -22.81170529 72.78967361 -25.3125 71.8125 C-26.48897095 71.35194214 -26.48897095 71.35194214 -27.68920898 70.88208008 C-32.54775524 68.9898536 -37.42171798 67.14837421 -42.31640625 65.3515625 C-43.404375 64.9505835 -44.49234375 64.54960449 -45.61328125 64.13647461 C-47.77386076 63.34226758 -49.9366097 62.55393566 -52.1015625 61.77172852 C-53.09027344 61.40748779 -54.07898438 61.04324707 -55.09765625 60.66796875 C-55.98332275 60.34594482 -56.86898926 60.0239209 -57.78149414 59.69213867 C-59.8125 58.75 -59.8125 58.75 -60.8125 56.75 C-60.31363281 56.1415625 -59.81476563 55.533125 -59.30078125 54.90625 C-46.99128502 39.88105533 -46.99128502 39.88105533 -34.8125 24.75 C-31.24298051 20.28047346 -27.65805222 15.82359898 -24.0625 11.375 C-23.50691406 10.6840625 -22.95132813 9.993125 -22.37890625 9.28125 C-14.96471418 0.12571016 -11.81683638 -1.05038546 0 0 Z " fill="#3E9BCC" transform="translate(334.8125,196.25)"/>
<path d="M0 0 C3.28002356 1.69028951 5.05986119 3.66115211 7.48828125 6.44140625 C8.45031762 7.52607656 9.41395938 8.60932437 10.37890625 9.69140625 C10.90162109 10.28050781 11.42433594 10.86960937 11.96289062 11.4765625 C15.15744868 15.02445252 18.45570168 18.47517779 21.73828125 21.94140625 C31.56709866 32.36959835 31.56709866 32.36959835 35.61328125 36.75390625 C36.38542969 37.58664062 37.15757812 38.419375 37.953125 39.27734375 C39.67578125 41.37890625 39.67578125 41.37890625 40.67578125 44.37890625 C39.55859375 46.10546875 39.55859375 46.10546875 37.80078125 48.00390625 C37.15238281 48.7103125 36.50398438 49.41671875 35.8359375 50.14453125 C33.67047489 52.38439493 31.46237388 54.57236148 29.23828125 56.75390625 C24.61713241 61.30359403 20.61585519 66.23641192 16.67578125 71.37890625 C18.17579716 76.85768777 22.01403141 80.23802211 25.86328125 84.19140625 C27.17062436 85.55078291 28.47661783 86.91145886 29.78125 88.2734375 C30.42674805 88.94689209 31.07224609 89.62034668 31.73730469 90.31420898 C34.81086137 93.58789524 37.73928902 96.98275377 40.67578125 100.37890625 C42.28427454 102.20104974 43.89750319 104.01886598 45.51171875 105.8359375 C47.83658821 108.91755977 48.157205 112.38458418 48.0546875 116.1640625 C46.75546943 123.75846093 39.69093228 129.73544223 34.67578125 135.19140625 C34.08265137 135.83795166 33.48952148 136.48449707 32.87841797 137.15063477 C24.57041968 145.96538647 24.57041968 145.96538647 18.17578125 146.87890625 C11.75877097 145.9621905 7.65398836 141.61511086 3.23828125 137.12890625 C2.35269531 136.236875 1.46710938 135.34484375 0.5546875 134.42578125 C-1.53101749 132.26143847 -3.50006663 130.02261491 -5.453125 127.73828125 C-10.28599278 122.17016343 -15.57927437 117.05353857 -20.82421875 111.87890625 C-32.76448433 100.09870807 -32.76448433 100.09870807 -37.84936523 94.04199219 C-39.42503727 92.26522048 -41.11282824 90.70581092 -42.88671875 89.12890625 C-49.02755212 83.14055407 -53.40217117 73.89590994 -53.63671875 65.31640625 C-53.40645208 52.78332038 -46.60534643 45.89630005 -38.32421875 37.37890625 C-37.10418944 35.99328414 -35.89400756 34.59885068 -34.69921875 33.19140625 C-31.47855779 29.4699248 -28.00304542 26.04384102 -24.50390625 22.5859375 C-21.97891674 20.02927249 -19.63156137 17.3595292 -17.2890625 14.63671875 C-14.73545514 11.70235482 -12.13014151 8.81792947 -9.51171875 5.94140625 C-9.03105957 5.40862061 -8.55040039 4.87583496 -8.05517578 4.3269043 C-3.29974925 -0.88178173 -3.29974925 -0.88178173 0 0 Z " fill="#EE7334" transform="translate(198.32421875,337.62109375)"/>
<path d="M0 0 C1.42823315 -0.00378833 2.85646261 -0.00929261 4.28468323 -0.01637268 C8.14421835 -0.03027646 12.00330514 -0.01919421 15.86281514 -0.00266147 C19.91143047 0.01124058 23.96002112 0.0047232 28.00865173 0.00120544 C34.80499453 -0.00149231 41.60116028 0.01194245 48.39746094 0.03515625 C56.24444358 0.06177401 64.09113051 0.06350809 71.93814284 0.05176789 C79.50191074 0.0409735 87.06557213 0.04718949 94.62933159 0.06132317 C97.84169483 0.06706751 101.05397973 0.06701257 104.26634407 0.06225777 C108.05119705 0.05747095 111.83572788 0.06765973 115.62051964 0.08921242 C117.00598693 0.09475694 118.39148532 0.09526711 119.77695465 0.09025955 C132.95200236 0.0486264 132.95200236 0.0486264 138.80053711 3.50170898 C143.48695477 8.55810698 144.04079803 12.23517745 144.36303711 18.93920898 C144.40477051 19.77508545 144.44650391 20.61096191 144.48950195 21.47216797 C144.77295256 27.66932374 144.90580581 33.86080802 144.92553711 40.06420898 C144.93012939 40.87881592 144.93472168 41.69342285 144.93945312 42.53271484 C144.92417238 48.25443845 144.92417238 48.25443845 143.80053711 50.50170898 C87.70053711 50.50170898 31.60053711 50.50170898 -26.19946289 50.50170898 C-26.19946289 10.50170898 -26.19946289 10.50170898 -22.19946289 4.50170898 C-16.05763828 -0.8987756 -7.66806333 -0.05812425 0 0 Z " fill="#3D9BCC" transform="translate(197.199462890625,134.498291015625)"/>
<path d="M0 0 C3.30164469 1.70376417 5.10800102 3.71051051 7.5546875 6.5078125 C8.51575704 7.5895823 9.4780668 8.67025111 10.44140625 9.75 C10.95751465 10.33233398 11.47362305 10.91466797 12.00537109 11.51464844 C15.07255831 14.93694599 18.22177013 18.28254816 21.3671875 21.6328125 C22.01284668 22.32197754 22.65850586 23.01114258 23.32373047 23.72119141 C26.55772373 27.1630783 29.81686881 30.56570202 33.1796875 33.8828125 C41.97055555 42.57833491 50.41642787 51.61752351 51.1171875 64.5078125 C50.73155698 78.09669745 42.77714617 86.38552348 33.6796875 95.3828125 C32.46305478 96.59977386 31.24691792 97.81723112 30.03125 99.03515625 C28.24964553 100.81887692 26.46559908 102.59894675 24.66430664 104.36279297 C21.7341259 107.24514985 18.94502568 110.18607938 16.26171875 113.30078125 C11.97911179 118.258807 7.31487377 122.79810873 2.640625 127.3828125 C-1.36426946 131.34131822 -5.17128374 135.39636536 -8.83227539 139.67602539 C-12.56255561 143.95467822 -15.56575467 145.77535512 -21.0625 146.6953125 C-28.35229369 145.68634452 -33.25206722 139.76485714 -37.9453125 134.6328125 C-38.90824219 133.61574219 -38.90824219 133.61574219 -39.890625 132.578125 C-49.84179428 121.85206959 -49.84179428 121.85206959 -50.8203125 114.7578125 C-49.86609438 108.31684018 -46.59184794 104.26733704 -42.1953125 99.6328125 C-41.20791621 98.58112064 -40.22094324 97.52903118 -39.234375 96.4765625 C-38.74356445 95.95707031 -38.25275391 95.43757813 -37.74707031 94.90234375 C-34.91214973 91.88308542 -32.15840525 88.79071482 -29.3984375 85.703125 C-28.02334326 84.16777542 -26.63801782 82.64152241 -25.2421875 81.125 C-24.60796875 80.42632812 -23.97375 79.72765625 -23.3203125 79.0078125 C-22.7634375 78.40195312 -22.2065625 77.79609375 -21.6328125 77.171875 C-20.08707584 75.06488873 -19.39690896 74.01581595 -19.3203125 71.3828125 C-22.96462103 64.104914 -29.92445482 58.78581985 -35.76171875 53.28320312 C-37.02048828 52.06213867 -37.02048828 52.06213867 -38.3046875 50.81640625 C-39.07522461 50.08478271 -39.84576172 49.35315918 -40.63964844 48.59936523 C-42.3203125 46.3828125 -42.3203125 46.3828125 -42.75708008 43.83349609 C-42.23332555 40.89473254 -41.42791739 39.85236303 -39.34765625 37.73828125 C-38.37977173 36.73462524 -38.37977173 36.73462524 -37.39233398 35.71069336 C-36.68794189 35.00436768 -35.9835498 34.29804199 -35.2578125 33.5703125 C-33.78870054 32.05503835 -32.31995959 30.53940442 -30.8515625 29.0234375 C-30.09875 28.25451172 -29.3459375 27.48558594 -28.5703125 26.69335938 C-25.08469718 23.11394712 -21.67102915 19.46859317 -18.2578125 15.8203125 C-17.66411865 15.19084717 -17.0704248 14.56138184 -16.45874023 13.9128418 C-12.79790635 10.01931252 -9.26322055 6.04228092 -5.80297852 1.96899414 C-3.71705267 -0.26256526 -3.01556184 -0.80211914 0 0 Z " fill="#3E9BCC" transform="translate(316.3203125,337.6171875)"/>
<path d="M0 0 C6.54605325 4.53188302 10.64193485 9.51115335 12.5625 17.2734375 C13.52757432 23.48610342 12.25032402 28.59959408 10.72265625 34.625 C9.254861 41.48000051 8.42343262 48.97890557 11.8125 55.375 C15.44775167 60.27334758 20.83118785 62.9640176 26 66 C35.60063114 72.05686876 43.93119688 78.68378849 47 90 C47 91.32 47 92.64 47 94 C32.36613931 94.92258595 17.83004358 95.06995247 3.171875 94.87890625 C0.95844083 94.8545267 -1.25499934 94.8306875 -3.46844482 94.80735779 C-9.22219834 94.7452944 -14.97584189 94.67601869 -20.72949219 94.60510254 C-26.62950747 94.53370499 -32.52959913 94.46931938 -38.4296875 94.40429688 C-49.95320899 94.27629078 -61.47662631 94.14064489 -73 94 C-72.71678889 92.58318669 -72.42465321 91.16815596 -72.12890625 89.75390625 C-71.96720947 88.9657251 -71.8055127 88.17754395 -71.63891602 87.36547852 C-68.58317379 76.05210962 -58.24404014 69.60477236 -48.75 64 C-48.06446045 63.62117676 -47.3789209 63.24235352 -46.67260742 62.85205078 C-41.52852357 59.85787385 -38.41872565 56.48190552 -36 51 C-34.47607307 42.95928025 -36.56043622 35.05410251 -38.3828125 27.2265625 C-39.65626584 20.56914185 -38.63135508 14.84294728 -35.35546875 8.91796875 C-27.24959558 -2.55172499 -12.59076001 -7.12970747 0 0 Z " fill="#ED7232" transform="translate(269,31)"/>
<path d="M0 0 C0.99 0.33 1.98 0.66 3 1 C3 48.52 3 96.04 3 145 C1.68 145 0.36 145 -1 145 C-1.495 145.99 -1.495 145.99 -2 147 C-2.02350933 131.19509563 -2.04106676 115.39019609 -2.05181217 99.58527851 C-2.05693723 92.24442772 -2.06390634 84.90358789 -2.07543945 77.56274414 C-2.08550353 71.15381095 -2.09188087 64.74488571 -2.09408849 58.33594483 C-2.09537601 54.95215692 -2.09888492 51.56840947 -2.10573006 48.18462563 C-2.12992484 35.7149927 -2.12338931 23.26053707 -1.55639648 10.80151367 C-1.51754113 9.92843976 -1.47868578 9.05536585 -1.43865299 8.15583515 C-1.12881318 2.25762636 -1.12881318 2.25762636 0 0 Z " fill="#EE6D2C" transform="translate(149,220)"/>
<path d="M0 0 C0.66 0 1.32 0 2 0 C1.67 13.2 1.34 26.4 1 40 C55.78 40 110.56 40 167 40 C167 27.46 167 14.92 167 2 C167.66 2 168.32 2 169 2 C169.61794708 11.85404901 170.10211573 21.68698337 170.125 31.5625 C170.13176758 32.7841687 170.13176758 32.7841687 170.13867188 34.03051758 C170.12400614 39.75198772 170.12400614 39.75198772 169 42 C112.9 42 56.8 42 -1 42 C-1 2 -1 2 0 0 Z " fill="#599EBA" transform="translate(172,143)"/>
<path d="M0 0 C1.125 3.75 1.125 3.75 0 6 C-0.24423079 8.94876147 -0.42515709 11.87436655 -0.55639648 14.82885742 C-0.59857772 15.7564622 -0.64075895 16.68406698 -0.68421841 17.639781 C-1.20293109 30.33479291 -1.12379307 43.03521411 -1.09765625 55.73828125 C-1.09522111 58.44353711 -1.09431577 61.14879294 -1.09336853 63.85404968 C-1.0902943 70.1857338 -1.08213521 76.51740009 -1.07201904 82.84907645 C-1.06073447 90.07312361 -1.05531676 97.29717175 -1.05032361 104.52122557 C-1.03994802 119.34749272 -1.02242663 134.17374605 -1 149 C0.32 149 1.64 149 3 149 C3 147.35 3 145.7 3 144 C3.66 144.99 4.32 145.98 5 147 C3.4705003 150.44137432 1.54630448 153.2222133 -1 156 C-1.99 156 -2.98 156 -4 156 C-4.09368119 137.57967629 -4.16409525 119.15941491 -4.20724869 100.738904 C-4.22782331 92.1848228 -4.25584563 83.63089013 -4.30175781 75.0769043 C-4.34178257 67.61622279 -4.36746983 60.15564892 -4.37635398 52.69486302 C-4.38154244 48.74894226 -4.39362899 44.80332926 -4.42292023 40.85750771 C-4.45033747 37.13349413 -4.45839278 33.4099112 -4.45243073 29.68580627 C-4.45403324 27.68795742 -4.47541693 25.69015403 -4.49768066 23.69242859 C-4.45931044 15.17149774 -2.94605405 7.99198484 0 0 Z " fill="#E3A97F" transform="translate(149,216)"/>
<path d="M0 0 C1.83804703 -0.00639748 1.83804703 -0.00639748 3.71322632 -0.01292419 C5.07339481 -0.01257467 6.43356327 -0.01211314 7.79373169 -0.0115509 C9.22446785 -0.01454268 10.65520321 -0.01794526 12.0859375 -0.02172852 C15.97440562 -0.03057107 19.86285174 -0.03290674 23.75132895 -0.0335443 C26.99684924 -0.03449345 30.24236441 -0.03817184 33.48788273 -0.0417164 C41.14517357 -0.04986203 48.80245264 -0.05230054 56.45974731 -0.05158997 C64.35943273 -0.05098922 72.25904985 -0.06154013 80.15871799 -0.07733363 C86.94012011 -0.09040846 93.72149991 -0.09577388 100.50291455 -0.09513456 C104.55350019 -0.09487954 108.60402515 -0.09773272 112.65459824 -0.10831261 C116.46473315 -0.11799255 120.27474937 -0.11807351 124.08488846 -0.11079597 C125.4824923 -0.10974998 126.88010353 -0.1121139 128.2776947 -0.11815643 C130.1872307 -0.12587693 132.09680713 -0.1200319 134.00634766 -0.11352539 C135.07449644 -0.11407016 136.14264523 -0.11461493 137.24316216 -0.1151762 C140.23247614 0.1425337 142.42238797 0.8745733 145.13015747 2.13371277 C145.13015747 2.46371277 145.13015747 2.79371277 145.13015747 3.13371277 C144.36355018 3.13279098 143.59694288 3.13186918 142.80710506 3.13091946 C124.14478208 3.10882497 105.48246172 3.09228205 86.82012844 3.0819006 C77.79513008 3.07674663 68.77014046 3.06972105 59.74514771 3.05827332 C51.87800515 3.04829902 44.01086892 3.04185279 36.14372021 3.03962427 C31.97902427 3.03832184 27.81434643 3.03526551 23.6496563 3.02798271 C19.72714006 3.02117918 15.80464934 3.01910462 11.88212776 3.02060509 C10.44505296 3.02033071 9.00797728 3.01835134 7.57090759 3.01450729 C5.60278445 3.00950237 3.63464752 3.01133085 1.66651917 3.01345825 C0.01697062 3.01207556 0.01697062 3.01207556 -1.66590214 3.01066494 C-5.1225462 3.14341789 -8.45570555 3.58982778 -11.86984253 4.13371277 C-8.27007533 0.1911106 -5.18591279 0.00814205 0 0 Z " fill="#4C91A9" transform="translate(188.86984252929688,134.8662872314453)"/>
<path d="M0 0 C0 1.32 0 2.64 0 4 C-3.84984276 7.67078031 -8.02834852 10.90665653 -13.0703125 12.76171875 C-15.22839954 13.86610503 -15.22839954 13.86610503 -15.828125 16.3828125 C-15.96734375 17.28773437 -16.1065625 18.19265625 -16.25 19.125 C-16.39953125 20.03507812 -16.5490625 20.94515625 -16.703125 21.8828125 C-16.80109375 22.58148438 -16.8990625 23.28015625 -17 24 C-16.01 24 -15.02 24 -14 24 C-14 24.66 -14 25.32 -14 26 C21.64 26 57.28 26 94 26 C94 23.36 94 20.72 94 18 C97.00617269 21.00617269 96.59585316 23.82381598 97 28 C82.36613931 28.92258595 67.83004358 29.06995247 53.171875 28.87890625 C50.95844083 28.8545267 48.74500066 28.8306875 46.53155518 28.80735779 C40.77780166 28.7452944 35.02415811 28.67601869 29.27050781 28.60510254 C23.37049253 28.53370499 17.47040087 28.46931938 11.5703125 28.40429688 C0.04679101 28.27629078 -11.47662631 28.14064489 -23 28 C-22.71678889 26.58318669 -22.42465321 25.16815596 -22.12890625 23.75390625 C-21.96720947 22.9657251 -21.8055127 22.17754395 -21.63891602 21.36547852 C-19.23229285 12.45536318 -11.8236481 6.14246486 -4.34375 1.26953125 C-2 0 -2 0 0 0 Z " fill="#D29466" transform="translate(219,97)"/>
<path d="M0 0 C1.77149666 0.0001133 1.77149666 0.0001133 3.57878113 0.00022888 C4.85385025 0.00539017 6.12891937 0.01055145 7.44262695 0.01586914 C9.40060966 0.01799156 9.40060966 0.01799156 11.39814758 0.02015686 C14.86530477 0.02397159 18.33241994 0.03379295 21.79956055 0.04486084 C25.33878003 0.05509741 28.87800631 0.05965929 32.41723633 0.06469727 C39.35931086 0.07541616 46.30135751 0.09248005 53.2434082 0.11352539 C53.0893632 1.55801913 52.93349583 3.0023186 52.77685547 4.4465332 C52.69025162 5.25084778 52.60364777 6.05516235 52.51441956 6.8838501 C52.22530814 9.26243898 51.77011613 11.54160972 51.1809082 13.86352539 C50.43446725 17.02069417 50.03279364 19.84899964 50.2434082 23.11352539 C52.7184082 21.62852539 52.7184082 21.62852539 55.2434082 20.11352539 C54.7283052 25.42808017 52.88176116 29.0197566 50.1809082 33.48852539 C49.80385742 34.12918945 49.42680664 34.76985352 49.03833008 35.42993164 C48.11501203 36.99606605 47.18035427 38.55550573 46.2434082 40.11352539 C45.9134082 40.11352539 45.5834082 40.11352539 45.2434082 40.11352539 C44.74568083 32.06693284 46.60028414 24.43950105 48.2434082 16.61352539 C48.5331882 15.20481863 48.82225692 13.79596535 49.1105957 12.38696289 C49.81333382 8.96075436 50.52570078 5.53663349 51.2434082 2.11352539 C43.53818991 2.07901831 35.83447303 2.09892556 28.12939453 2.15625 C25.50963564 2.16937066 22.88978408 2.17014162 20.27001953 2.15820312 C16.49850484 2.14317717 12.72955657 2.17289978 8.95825195 2.21118164 C7.79132309 2.19692642 6.62439423 2.1826712 5.42210388 2.16798401 C-0.33283555 2.26990495 -3.85459033 2.50159817 -8.05126953 6.66992188 C-8.986108 7.79102585 -9.90128761 8.93062563 -10.7565918 10.11352539 C-11.70946669 7.09394212 -11.90631515 6.4354306 -10.5065918 3.42602539 C-7.61019651 -0.4013541 -4.49421735 -0.00958255 0 0 Z " fill="#E1A16F" transform="translate(199.756591796875,317.886474609375)"/>
<path d="M0 0 C0.94741058 -0.00029205 1.89482117 -0.00058411 2.87094116 -0.00088501 C5.97126751 0.00049719 9.07134702 0.01600575 12.17163086 0.03173828 C14.33353036 0.03547236 16.49543157 0.03831747 18.65733337 0.04031372 C24.32409405 0.04791907 29.99075083 0.06754078 35.6574707 0.08972168 C41.44928584 0.11024706 47.2411179 0.11932971 53.03295898 0.12939453 C64.38000963 0.15078973 75.72698345 0.18488803 87.07397461 0.22705078 C86.45311241 3.91002944 86.00722479 5.80393107 83.07397461 8.22705078 C82.57897461 5.75205078 82.57897461 5.75205078 82.07397461 3.22705078 C69.54764416 3.20386449 57.02131883 3.18610361 44.49497128 3.17523861 C38.67828042 3.17002355 32.86160427 3.16295089 27.04492188 3.15161133 C21.42986977 3.14073355 15.8148318 3.13476356 10.19976997 3.13217354 C8.05920756 3.13032811 5.91864591 3.12672448 3.77808952 3.12132072 C0.77635919 3.11404542 -2.22531302 3.11306258 -5.22705078 3.11352539 C-6.10890549 3.10993011 -6.99076019 3.10633484 -7.89933777 3.10263062 C-12.68299268 3.11059375 -17.20848979 3.42351081 -21.92602539 4.22705078 C-15.39380418 -0.12776336 -7.63118214 -0.06273541 0 0 Z " fill="#E0A47B" transform="translate(188.926025390625,195.77294921875)"/>
<path d="M0 0 C0.33 1.32 0.66 2.64 1 4 C0.34 4 -0.32 4 -1 4 C-0.67 4.99 -0.34 5.98 0 7 C-0.99 7 -1.98 7 -3 7 C-3.12375 7.639375 -3.2475 8.27875 -3.375 8.9375 C-3.58125 9.618125 -3.7875 10.29875 -4 11 C-4.99 11.495 -4.99 11.495 -6 12 C-6.33 12.99 -6.66 13.98 -7 15 C-6.34 15 -5.68 15 -5 15 C-3.375 16.375 -3.375 16.375 -2 18 C-2 18.66 -2 19.32 -2 20 C-3.58886719 21.28100586 -3.58886719 21.28100586 -5.796875 22.71484375 C-6.5909375 23.23626953 -7.385 23.75769531 -8.203125 24.29492188 C-9.04359375 24.83697266 -9.8840625 25.37902344 -10.75 25.9375 C-12.39124905 27.00815856 -14.03189427 28.07974345 -15.671875 29.15234375 C-16.4050293 29.62663818 -17.13818359 30.10093262 -17.89355469 30.58959961 C-20.04140483 31.98297844 -20.04140483 31.98297844 -22.08300781 33.67797852 C-24 35 -24 35 -27 35 C-26.67 32.36 -26.34 29.72 -26 27 C-25.34 27.66 -24.68 28.32 -24 29 C-23.608125 28.443125 -23.21625 27.88625 -22.8125 27.3125 C-21 25 -21 25 -18.6953125 22.71875 C-11.81155069 15.77512939 -5.72692089 7.91525652 0 0 Z " fill="#4499BF" transform="translate(270,328)"/>
<path d="M0 0 C0.33 0 0.66 0 1 0 C1 47.19 1 94.38 1 143 C0.01 143 -0.98 143 -2 143 C-1.93019456 142.21713277 -1.86038912 141.43426554 -1.78846836 140.62767506 C-1.11602242 132.60234069 -0.83432192 124.64177924 -0.79467773 116.59057617 C-0.78477814 115.32071365 -0.77487854 114.05085114 -0.76467896 112.74250793 C-0.73798442 109.30538996 -0.71678637 105.86825875 -0.69667697 102.43109679 C-0.67459479 98.8223118 -0.64731639 95.2135659 -0.62062073 91.60481262 C-0.57099086 84.79123499 -0.52594368 77.97763531 -0.48259836 71.16401511 C-0.4329697 63.39841838 -0.37814783 55.63286091 -0.32291877 47.8673023 C-0.20955563 31.91157128 -0.10261976 15.95580395 0 0 Z " fill="#B4E0EA" transform="translate(366,229)"/>
<path d="M0 0 C0.94741058 -0.00029205 1.89482117 -0.00058411 2.87094116 -0.00088501 C5.97126751 0.00049719 9.07134702 0.01600575 12.17163086 0.03173828 C14.33353036 0.03547236 16.49543157 0.03831747 18.65733337 0.04031372 C24.32409405 0.04791907 29.99075083 0.06754078 35.6574707 0.08972168 C41.44928584 0.11024706 47.2411179 0.11932971 53.03295898 0.12939453 C64.38000963 0.15078973 75.72698345 0.18488803 87.07397461 0.22705078 C87.07397461 0.55705078 87.07397461 0.88705078 87.07397461 1.22705078 C85.33296982 1.23918106 85.33296982 1.23918106 83.55679321 1.2515564 C72.63793726 1.32891907 61.71920744 1.41663301 50.80051613 1.51457787 C45.18661614 1.56460139 39.57273554 1.61093075 33.95874023 1.64892578 C28.54461344 1.68570224 23.13064645 1.73204104 17.71665573 1.78511429 C15.64735075 1.80369898 13.57801146 1.81879174 11.50865555 1.83039474 C8.61831417 1.84718769 5.72834206 1.87620537 2.83813477 1.90820312 C1.97570663 1.91036331 1.1132785 1.9125235 0.22471619 1.91474915 C-4.3270678 1.77938272 -4.3270678 1.77938272 -7.92602539 4.22705078 C-10.96508789 4.42236328 -10.96508789 4.42236328 -14.55102539 4.35205078 C-15.73954102 4.33400391 -16.92805664 4.31595703 -18.15258789 4.29736328 C-19.06782227 4.27416016 -19.98305664 4.25095703 -20.92602539 4.22705078 C-15.87234116 -0.82663345 -6.71115296 -0.05517191 0 0 Z " fill="#E1753C" transform="translate(183.926025390625,197.77294921875)"/>
<path d="M0 0 C0 1.32 0 2.64 0 4 C-3.84984276 7.67078031 -8.02834852 10.90665653 -13.0703125 12.76171875 C-15.22839954 13.86610503 -15.22839954 13.86610503 -15.828125 16.3828125 C-15.96734375 17.28773437 -16.1065625 18.19265625 -16.25 19.125 C-16.39953125 20.03507812 -16.5490625 20.94515625 -16.703125 21.8828125 C-16.80109375 22.58148438 -16.8990625 23.28015625 -17 24 C-16.01 24 -15.02 24 -14 24 C-14 24.66 -14 25.32 -14 26 C-15.98 26 -17.96 26 -20 26 C-20.07487755 20.18094457 -19.91612216 15.3453992 -16.0625 10.75 C-5.35692149 0 -5.35692149 0 0 0 Z " fill="#EA773A" transform="translate(219,97)"/>
<path d="M0 0 C3.70301507 2.06679911 5.46498522 4.96289137 7.6875 8.5 C6.6975 8.5 5.7075 8.5 4.6875 8.5 C4.3575 7.18 4.0275 5.86 3.6875 4.5 C2.2074159 4.61362262 0.72839926 4.74122908 -0.75 4.875 C-1.57371094 4.94460938 -2.39742187 5.01421875 -3.24609375 5.0859375 C-3.92800781 5.22257812 -4.60992187 5.35921875 -5.3125 5.5 C-5.6425 6.16 -5.9725 6.82 -6.3125 7.5 C-6.9725 7.5 -7.6325 7.5 -8.3125 7.5 C-8.415625 8.139375 -8.51875 8.77875 -8.625 9.4375 C-8.851875 10.118125 -9.07875 10.79875 -9.3125 11.5 C-10.3025 11.83 -11.2925 12.16 -12.3125 12.5 C-12.3125 13.16 -12.3125 13.82 -12.3125 14.5 C-12.9725 14.5 -13.6325 14.5 -14.3125 14.5 C-14.3125 15.16 -14.3125 15.82 -14.3125 16.5 C-15.3025 16.5 -16.2925 16.5 -17.3125 16.5 C-16.9825 17.49 -16.6525 18.48 -16.3125 19.5 C-17.3025 20.16 -18.2925 20.82 -19.3125 21.5 C-20.3025 21.17 -21.2925 20.84 -22.3125 20.5 C-18.11119918 15.62477037 -13.82922385 10.82414756 -9.5 6.0625 C-9.02006592 5.53043945 -8.54013184 4.99837891 -8.0456543 4.45019531 C-3.32558539 -0.71904549 -3.32558539 -0.71904549 0 0 Z " fill="#DC9466" transform="translate(198.3125,337.5)"/>
<path d="M0 0 C0.75 1.625 0.75 1.625 1 4 C-0.8125 7.25 -0.8125 7.25 -3 10 C-3.66 10 -4.32 10 -5 10 C-5.02721831 13.0000624 -5.04694378 15.99987256 -5.0625 19 C-5.07087891 19.83917969 -5.07925781 20.67835938 -5.08789062 21.54296875 C-5.10824033 26.79319339 -4.76368207 31.80455662 -4 37 C-8.6508537 31.50353654 -9.45952797 25.8918706 -9.31640625 18.87890625 C-8.48573171 11.32079348 -5.15348493 5.43978965 0 0 Z " fill="#DD9465" transform="translate(154,381)"/>
<path d="M0 0 C0.33 1.32 0.66 2.64 1 4 C0.34 4 -0.32 4 -1 4 C-0.67 4.99 -0.34 5.98 0 7 C-0.99 7 -1.98 7 -3 7 C-3.12375 7.639375 -3.2475 8.27875 -3.375 8.9375 C-3.58125 9.618125 -3.7875 10.29875 -4 11 C-4.99 11.495 -4.99 11.495 -6 12 C-6.33 12.99 -6.66 13.98 -7 15 C-6.34 15 -5.68 15 -5 15 C-3.375 16.375 -3.375 16.375 -2 18 C-2 18.66 -2 19.32 -2 20 C-3.98 20.99 -5.96 21.98 -8 23 C-9.8323808 20.01962159 -10.89889984 17.52334064 -11 14 C-8.53363011 9.81716998 -5.33588833 6.50239566 -2 3 C-1.34 2.01 -0.68 1.02 0 0 Z " fill="#4C9BBE" transform="translate(270,328)"/>
<path d="M0 0 C0.33 0.66 0.66 1.32 1 2 C1.99 2.33 2.98 2.66 4 3 C-2.40330768 10.28870331 -9.0848117 17.20114197 -16 24 C-16.33 22.68 -16.66 21.36 -17 20 C-16.34 20 -15.68 20 -15 20 C-15 19.34 -15 18.68 -15 18 C-11.91243406 14.64778555 -8.5698765 11.81832355 -5 9 C-4.443125 8.4225 -3.88625 7.845 -3.3125 7.25 C-2 6 -2 6 0 6 C0 4.02 0 2.04 0 0 Z " fill="#62A3BE" transform="translate(333,443)"/>
<path d="M0 0 C0.103125 0.639375 0.20625 1.27875 0.3125 1.9375 C0.6528125 2.9584375 0.6528125 2.9584375 1 4 C1.99 4.33 2.98 4.66 4 5 C2.40207898 6.17520646 0.79643092 7.33991247 -0.8125 8.5 C-1.70582031 9.1496875 -2.59914062 9.799375 -3.51953125 10.46875 C-6 12 -6 12 -9 12 C-8.67 9.36 -8.34 6.72 -8 4 C-7.34 4.66 -6.68 5.32 -6 6 C-5.566875 5.38125 -5.13375 4.7625 -4.6875 4.125 C-3 2 -3 2 0 0 Z " fill="#619AB0" transform="translate(252,351)"/>
<path d="M0 0 C0.33 0.99 0.66 1.98 1 3 C-0.28725907 4.70250393 -1.62131719 6.37064759 -3 8 C-3 8.66 -3 9.32 -3 10 C-3.680625 10.350625 -4.36125 10.70125 -5.0625 11.0625 C-8.73955365 13.48779071 -10.68439848 16.43622232 -13.15625 20.0390625 C-15.37676532 22.40071226 -16.82817125 22.68498961 -20 23 C-15.54804305 17.68238476 -10.88198991 12.59044103 -6.13964844 7.5324707 C-3.87487366 5.10257115 -1.84693514 2.77040271 0 0 Z " fill="#6BAAC5" transform="translate(292,417)"/>
<path d="M0 0 C0.99 0 1.98 0 3 0 C1.50923566 3.2826932 -0.38620321 5.93077441 -2.625 8.75 C-3.57246094 9.94882813 -3.57246094 9.94882813 -4.5390625 11.171875 C-5.26222656 12.07679688 -5.26222656 12.07679688 -6 13 C-5.34 13.66 -4.68 14.32 -4 15 C-5.98 15 -7.96 15 -10 15 C-10.33 14.34 -10.66 13.68 -11 13 C-9.54300902 11.20724155 -8.08436345 9.41582771 -6.625 7.625 C-5.40683594 6.12839844 -5.40683594 6.12839844 -4.1640625 4.6015625 C-2 2 -2 2 0 0 Z " fill="#57A2C4" transform="translate(285,240)"/>
<path d="M0 0 C2.81910782 2.81910782 2.71219643 5.14897859 3.046875 9.03125 C2.97765555 13.41514837 1.80342407 17.38400723 0.70703125 21.609375 C-0.66852061 28.20594414 -0.93777761 35.48344144 1 42 C0.01 41.67 -0.98 41.34 -2 41 C-2.05834353 37.77090994 -2.09371115 34.54195662 -2.125 31.3125 C-2.15013672 29.94448242 -2.15013672 29.94448242 -2.17578125 28.54882812 C-2.21066408 23.7524392 -1.87125933 20.44424091 0 16 C0.13760722 13.19006055 0.19011573 10.48998076 0.125 7.6875 C0.11597656 6.94693359 0.10695313 6.20636719 0.09765625 5.44335938 C0.07424213 3.62876533 0.03837615 1.81433929 0 0 Z " fill="#DEAD89" transform="translate(279,44)"/>
<path d="M0 0 C0.66 0.33 1.32 0.66 2 1 C0.51991304 6.00113594 -1.6318336 10.32915597 -4.125 14.875 C-4.49753906 15.56335938 -4.87007813 16.25171875 -5.25390625 16.9609375 C-6.16499526 18.64294798 -7.08190315 20.32180436 -8 22 C-8.33 22 -8.66 22 -9 22 C-9 20.02 -9 18.04 -9 16 C-8.67 16 -8.34 16 -8 16 C-7.855625 15.2575 -7.71125 14.515 -7.5625 13.75 C-7.09812508 11.47972261 -6.58136431 9.24240521 -6 7 C-4.68 7 -3.36 7 -2 7 C-2 5.35 -2 3.7 -2 2 C-1.34 2 -0.68 2 0 2 C0 1.34 0 0.68 0 0 Z " fill="#DD8D60" transform="translate(271,302)"/>
<path d="M0 0 C0.268125 0.556875 0.53625 1.11375 0.8125 1.6875 C1.99898377 4.0839757 1.99898377 4.0839757 3.625 6.5625 C5 9 5 9 5 12 C4.29423828 11.38511719 4.29423828 11.38511719 3.57421875 10.7578125 C2.95160156 10.21898437 2.32898438 9.68015625 1.6875 9.125 C0.76517578 8.32449219 0.76517578 8.32449219 -0.17578125 7.5078125 C-2.13498212 5.8359553 -2.13498212 5.8359553 -5 4 C-8.19920361 4.33325038 -10.94858478 4.98286159 -14 6 C-14 4.68 -14 3.36 -14 2 C-13.07316406 1.93941406 -12.14632813 1.87882812 -11.19140625 1.81640625 C-9.39509766 1.69072266 -9.39509766 1.69072266 -7.5625 1.5625 C-5.77005859 1.44068359 -5.77005859 1.44068359 -3.94140625 1.31640625 C-1.11429756 1.32343886 -1.11429756 1.32343886 0 0 Z " fill="#63A9C6" transform="translate(319,316)"/>
<path d="M0 0 C0.99 0 1.98 0 3 0 C3.65726609 6.3097545 1.92785162 10.04189222 -2 15 C-2.33 15 -2.66 15 -3 15 C-3.17922662 9.8024279 -3.02641345 5.88723244 -1 1 C-0.67 0.67 -0.34 0.34 0 0 Z " fill="#DC723A" transform="translate(248,343)"/>
<path d="M0 0 C0.68513672 0.20157715 1.37027344 0.4031543 2.07617188 0.61083984 C5.21696331 1.53388473 8.35847362 2.45445971 11.5 3.375 C12.57765625 3.69210937 13.6553125 4.00921875 14.765625 4.3359375 C20.48645767 6.01032755 26.2039547 7.60726096 32 9 C32 9.33 32 9.66 32 10 C25.84765625 10.09765625 25.84765625 10.09765625 24 10 C23.67 9.67 23.34 9.34 23 9 C21.88625 8.855625 20.7725 8.71125 19.625 8.5625 C16 8 16 8 13 6 C10.95130926 5.55570562 8.88545707 5.18705805 6.8125 4.875 C5.72582031 4.70742188 4.63914063 4.53984375 3.51953125 4.3671875 C2.27236328 4.18542969 2.27236328 4.18542969 1 4 C0.67 2.68 0.34 1.36 0 0 Z " fill="#D9976C" transform="translate(236,267)"/>
<path d="M0 0 C0.33 0.99 0.66 1.98 1 3 C-0.8125 6.1875 -0.8125 6.1875 -3 9 C-3.66 9 -4.32 9 -5 9 C-5.24492187 9.58265625 -5.48984375 10.1653125 -5.7421875 10.765625 C-7.20435874 13.36302236 -8.84740414 14.83975831 -11.125 16.75 C-12.21167969 17.67039062 -12.21167969 17.67039062 -13.3203125 18.609375 C-13.87460937 19.06828125 -14.42890625 19.5271875 -15 20 C-15.66 19.67 -16.32 19.34 -17 19 C-16.19175781 18.13117188 -15.38351562 17.26234375 -14.55078125 16.3671875 C-13.47127513 15.20319829 -12.3918525 14.03913165 -11.3125 12.875 C-10.78205078 12.30523437 -10.25160156 11.73546875 -9.70507812 11.1484375 C-6.34790794 7.52351755 -3.13096309 3.82221468 0 0 Z " fill="#60A5C2" transform="translate(309,341)"/>
<path d="M0 0 C0.33 0 0.66 0 1 0 C1 12.54 1 25.08 1 38 C0.01 38 -0.98 38 -2 38 C-1.34 25.46 -0.68 12.92 0 0 Z " fill="#B1DFEB" transform="translate(366,334)"/>
<path d="M0 0 C0.33 0 0.66 0 1 0 C1.10469338 5.75813575 0.74016701 11.29014022 0 17 C1.65 16.01 3.3 15.02 5 14 C4.5205537 18.21912747 3.83374881 20.79663178 1 24 C0.34 22.68 -0.32 21.36 -1 20 C-1.66 20 -2.32 20 -3 20 C-2.33644956 13.25390382 -1.28134207 6.65551466 0 0 Z " fill="#DE9161" transform="translate(250,324)"/>
<path d="M0 0 C0 4 0 4 -2.6875 6.75 C-5.58228489 8.99090407 -7.31838603 9.29065373 -11 9 C-13.25132517 9.91568906 -13.25132517 9.91568906 -15 11 C-11.98347183 6.54078445 -5.81108308 0 0 0 Z " fill="#E09261" transform="translate(219,97)"/>
<path d="M0 0 C1.04528759 2.90357663 0.95831259 4.16674962 0.1875 7.25 C-0.05582019 12.11640376 1.57105838 13.72817475 4.65234375 17.30078125 C6 19 6 19 6 21 C6.61875 21.268125 7.2375 21.53625 7.875 21.8125 C10 23 10 23 12 26 C9 26 9 26 6.80859375 23.953125 C6.02613281 23.06109375 5.24367188 22.1690625 4.4375 21.25 C3.65246094 20.36828125 2.86742187 19.4865625 2.05859375 18.578125 C-1.66135188 13.91936956 -2.42241942 11.01947667 -2 5 C-1 2.0625 -1 2.0625 0 0 Z " fill="#6AAAC1" transform="translate(268,444)"/>
<path d="M0 0 C4.14036282 3.92803653 5.78885174 5.92370876 6.375 11.6875 C6.34739236 16.64767264 4.06641588 20.21976271 1 24 C0.67 24 0.34 24 0 24 C-0.1875 21.6875 -0.1875 21.6875 0 19 C0.474375 18.566875 0.94875 18.13375 1.4375 17.6875 C4.00914674 14.91012153 3.6969156 11.69762964 4 8 C3.34 8 2.68 8 2 8 C1.34 5.36 0.68 2.72 0 0 Z " fill="#DEA179" transform="translate(240,440)"/>
<path d="M0 0 C0.33 0.66 0.66 1.32 1 2 C0.34 2 -0.32 2 -1 2 C-1.226875 2.886875 -1.45375 3.77375 -1.6875 4.6875 C-3.19941083 8.50327495 -4.86282327 10.38568606 -8 13 C-10.3125 13.8125 -10.3125 13.8125 -12 14 C-10.66445565 10.02119078 -9.01381696 7.65301487 -6 4.75 C-4.948125 3.72132813 -4.948125 3.72132813 -3.875 2.671875 C-2 1 -2 1 0 0 Z " fill="#DD8B5B" transform="translate(162,202)"/>
<path d="M0 0 C1.76923828 0.01353516 1.76923828 0.01353516 3.57421875 0.02734375 C4.47785156 0.03894531 5.38148438 0.05054688 6.3125 0.0625 C6.3125 0.3925 6.3125 0.7225 6.3125 1.0625 C5.36890625 1.0315625 5.36890625 1.0315625 4.40625 1 C-1.29081216 1.13727861 -4.25111947 1.99811333 -8.3125 6.125 C-9.46124404 7.41676948 -10.59500602 8.72282162 -11.6875 10.0625 C-12.64037489 7.04291673 -12.83722335 6.38440521 -11.4375 3.375 C-8.35697143 -0.69569847 -4.76666183 -0.04719467 0 0 Z " fill="#DD874F" transform="translate(200.6875,317.9375)"/>
<path d="M0 0 C5.98166808 2.90020271 10.58663767 8.05037426 13.4375 14 C13.623125 14.66 13.80875 15.32 14 16 C12.35 15.67 10.7 15.34 9 15 C8.7525 14.0925 8.505 13.185 8.25 12.25 C6.95087424 8.87227303 5.59801015 7.42480947 3 5 C3 4.34 3 3.68 3 3 C2.01 2.67 1.02 2.34 0 2 C0 1.34 0 0.68 0 0 Z " fill="#6CAAC5" transform="translate(349,202)"/>
<path d="M0 0 C1.1446875 0.12375 1.1446875 0.12375 2.3125 0.25 C-1.36582017 4.77615993 -5.09836363 8.64424999 -9.6875 12.25 C-10.0175 11.59 -10.3475 10.93 -10.6875 10.25 C-9.52100008 6.75050023 -8.56437011 6.36534567 -5.6875 4.25 C-5.213125 3.528125 -4.73875 2.80625 -4.25 2.0625 C-2.6875 0.25 -2.6875 0.25 0 0 Z " fill="#DC9566" transform="translate(174.6875,339.75)"/>
<path d="M0 0 C0.66163651 0.02361099 1.32327301 0.04722198 2.00495911 0.07154846 C4.11421127 0.14800482 6.22307945 0.23210582 8.33203125 0.31640625 C9.76365321 0.36964505 11.19529379 0.42238532 12.62695312 0.47460938 C16.13304701 0.60359507 19.63883696 0.73943749 23.14453125 0.87890625 C23.14453125 1.20890625 23.14453125 1.53890625 23.14453125 1.87890625 C21.88177368 1.91649048 21.88177368 1.91649048 20.59350586 1.95483398 C17.44186981 2.05050904 14.29036899 2.14970701 11.13891602 2.2512207 C9.78023545 2.29427919 8.42151084 2.3359719 7.06274414 2.3762207 C5.09900822 2.43463518 3.13543761 2.49852428 1.171875 2.5625 C-0.00640869 2.59915771 -1.18469238 2.63581543 -2.39868164 2.67358398 C-5.9283564 2.88323555 -9.36365486 3.33105605 -12.85546875 3.87890625 C-8.94920437 -0.39938331 -5.5997082 -0.21264715 0 0 Z " fill="#5499B4" transform="translate(189.85546875,135.12109375)"/>
<path d="M0 0 C0.928125 0.845625 1.85625 1.69125 2.8125 2.5625 C7.50423392 6.6074311 12.72595206 9.77644086 18 13 C15.60233822 13.86315824 14.45868673 14.19498828 12.0703125 13.1796875 C10.02765653 11.80971342 7.99765451 10.43509663 6 9 C5.38898438 8.56816406 4.77796875 8.13632813 4.1484375 7.69140625 C2.5 6.4375 2.5 6.4375 0 4 C0 2.68 0 1.36 0 0 Z " fill="#D78F62" transform="translate(280,86)"/>
<path d="M0 0 C0.99 0 1.98 0 3 0 C4.28317892 3.84953676 4.06643637 6.94738135 4 11 C3.34 11 2.68 11 2 11 C1.34 11.66 0.68 12.32 0 13 C0 8.71 0 4.42 0 0 Z " fill="#EF6927" transform="translate(148,393)"/>
<path d="M0 0 C0.93423645 3.01031744 1.04449911 3.86650268 0 7 C-0.99 7.495 -0.99 7.495 -2 8 C-3.10514766 11.31544299 -3.32107631 14.20410111 -3.5625 17.6875 C-3.64628906 18.86699219 -3.73007813 20.04648437 -3.81640625 21.26171875 C-3.87699219 22.16535156 -3.93757812 23.06898437 -4 24 C-4.33 24 -4.66 24 -5 24 C-6.63598439 14.44938842 -5.10146829 8.16234927 0 0 Z " fill="#DA9E75" transform="translate(236,37)"/>
<path d="M0 0 C0.66 1.32 1.32 2.64 2 4 C-3.0940919 10.70459519 -3.0940919 10.70459519 -6.875 11.9375 C-7.57625 11.958125 -8.2775 11.97875 -9 12 C-6 8 -3 4 0 0 Z " fill="#57A2C0" transform="translate(280,316)"/>
<path d="M0 0 C1.32 0.33 2.64 0.66 4 1 C0.37 4.63 -3.26 8.26 -7 12 C-7.33 10.68 -7.66 9.36 -8 8 C-6.75 6.25 -6.75 6.25 -5 5 C-4.01 5 -3.02 5 -2 5 C-2 4.01 -2 3.02 -2 2 C-1.34 2 -0.68 2 0 2 C0 1.34 0 0.68 0 0 Z " fill="#D88757" transform="translate(231,386)"/>
<path d="M0 0 C0.75410156 0.00451172 1.50820313 0.00902344 2.28515625 0.01367188 C4.14847127 0.02546501 6.01174555 0.04340058 7.875 0.0625 C8.205 0.7225 8.535 1.3825 8.875 2.0625 C6.45888467 2.28487877 4.0432283 2.49082339 1.625 2.6875 C0.94308594 2.75195312 0.26117188 2.81640625 -0.44140625 2.8828125 C-4.2477049 3.17844735 -6.90309846 3.23811392 -10.125 1.0625 C-6.93675432 -0.53162284 -3.49603338 -0.03924735 0 0 Z " fill="#DB662A" transform="translate(257.125,29.9375)"/>
<path d="M0 0 C2.475 0.495 2.475 0.495 5 1 C5 1.66 5 2.32 5 3 C5.66 3 6.32 3 7 3 C9.1875 5.25 9.1875 5.25 11 8 C10.61328125 10.171875 10.61328125 10.171875 10 12 C8.33032474 10.19019128 6.66417692 8.3773524 5 6.5625 C4.28457031 5.7880957 4.28457031 5.7880957 3.5546875 4.99804688 C0 1.11328125 0 1.11328125 0 0 Z " fill="#DE9568" transform="translate(191,462)"/>
<path d="M0 0 C7.48291572 6.15034169 7.48291572 6.15034169 10 10 C8.68 10.33 7.36 10.66 6 11 C6 10.34 6 9.68 6 9 C5.34 9 4.68 9 4 9 C4 8.34 4 7.68 4 7 C3.01 6.67 2.02 6.34 1 6 C0.67 4.02 0.34 2.04 0 0 Z " fill="#5CA4C3" transform="translate(341,364)"/>
<path d="M0 0 C2 1.375 2 1.375 4 4 C4.35791096 7.3580469 4.23115823 10.63536357 4 14 C2.35 14 0.7 14 -1 14 C-0.34 13.67 0.32 13.34 1 13 C1.07654536 8.48382401 1.10228696 4.40914783 0 0 Z " fill="#E1824C" transform="translate(309,109)"/>
<path d="M0 0 C1.65 0 3.3 0 5 0 C1.6189962 4.13621084 -1.66590534 7.81316569 -6 11 C-5.67 9.35 -5.34 7.7 -5 6 C-3.68 5.67 -2.36 5.34 -1 5 C-0.67 3.35 -0.34 1.7 0 0 Z " fill="#DA9163" transform="translate(230,470)"/>
<path d="M0 0 C0.33 0.66 0.66 1.32 1 2 C1.99 2.33 2.98 2.66 4 3 C2.54540569 4.64913882 1.08620743 6.29421782 -0.375 7.9375 C-1.18710937 8.85402344 -1.99921875 9.77054687 -2.8359375 10.71484375 C-5 13 -5 13 -7 14 C-6.45912682 10.21388773 -4.88277668 8.44599233 -2 6 C-1.34 6 -0.68 6 0 6 C0 4.02 0 2.04 0 0 Z " fill="#6AA9C1" transform="translate(333,443)"/>
<path d="M0 0 C1.32 0 2.64 0 4 0 C2.58707905 4.8274799 0.57025846 8.7162359 -2 13 C-2.33 11.68 -2.66 10.36 -3 9 C-2.34 9 -1.68 9 -1 9 C-1.020625 7.88625 -1.04125 6.7725 -1.0625 5.625 C-1 2 -1 2 0 0 Z " fill="#DC8A5C" transform="translate(265,209)"/>
<path d="M0 0 C0.66 0 1.32 0 2 0 C0.59698853 3.18673962 -1.07765071 5.32221406 -3.5625 7.75 C-4.49255859 8.67039062 -4.49255859 8.67039062 -5.44140625 9.609375 C-7 11 -7 11 -8 11 C-8 9.02 -8 7.04 -8 5 C-7.13375 4.87625 -7.13375 4.87625 -6.25 4.75 C-3.39201069 3.7973369 -2.07045412 2.13946926 0 0 Z " fill="#6CA8C0" transform="translate(356,423)"/>
<path d="M0 0 C0.99 0 1.98 0 3 0 C1.58192622 4.47238653 -0.11304374 8.71146306 -2 13 C-2.33 13 -2.66 13 -3 13 C-3 10.03 -3 7.06 -3 4 C-2.34 4 -1.68 4 -1 4 C-0.67 2.68 -0.34 1.36 0 0 Z " fill="#E09369" transform="translate(276,290)"/>
<path d="M0 0 C0.66 0.33 1.32 0.66 2 1 C2.59355614 3.64860427 2.74209269 6.29197322 3 9 C2.34 9 1.68 9 1 9 C1 10.32 1 11.64 1 13 C0.34 13 -0.32 13 -1 13 C-1.0272415 11.58344207 -1.04650467 10.16672955 -1.0625 8.75 C-1.07410156 7.96109375 -1.08570313 7.1721875 -1.09765625 6.359375 C-1.00385306 4.09308998 -0.63241063 2.1711105 0 0 Z " fill="#378EBD" transform="translate(361,217)"/>
<path d="M0 0 C1.53640826 4.60922477 -0.17825415 7.62780997 -2 12 C-2.66 11.34 -3.32 10.68 -4 10 C-4.99 9.67 -5.98 9.34 -7 9 C-4.69 6.03 -2.38 3.06 0 0 Z " fill="#529EC1" transform="translate(302,289)"/>
<path d="M0 0 C4.78373993 1.6401394 8.70723897 3.78383824 11.3125 8.25 C11.539375 8.8275 11.76625 9.405 12 10 C9 10 9 10 6.73828125 8.06640625 C5.93777344 7.24011719 5.13726562 6.41382813 4.3125 5.5625 C3.50425781 4.73878906 2.69601562 3.91507812 1.86328125 3.06640625 C0 1 0 1 0 0 Z " fill="#5DA2BE" transform="translate(284,393)"/>
<path d="M0 0 C0.99 0.33 1.98 0.66 3 1 C3 3.31 3 5.62 3 8 C0.37812506 6.95125002 -0.79371361 6.35068687 -2.25 3.875 C-2.4975 3.25625 -2.745 2.6375 -3 2 C-2.01 2 -1.02 2 0 2 C0 1.34 0 0.68 0 0 Z " fill="#5FA6C3" transform="translate(362,362)"/>
<path d="M0 0 C0.66 0.99 1.32 1.98 2 3 C1.01 4.32 0.02 5.64 -1 7 C-0.34 7.33 0.32 7.66 1 8 C-2 10 -2 10 -5 10 C-4.67 7.36 -4.34 4.72 -4 2 C-3.34 2.66 -2.68 3.32 -2 4 C-1.34 2.68 -0.68 1.36 0 0 Z " fill="#D1D3CD" transform="translate(248,353)"/>
<path d="M0 0 C1.65 0.99 3.3 1.98 5 3 C4.67 4.65 4.34 6.3 4 8 C1.37812506 6.95125002 0.20628639 6.35068687 -1.25 3.875 C-1.4975 3.25625 -1.745 2.6375 -2 2 C-1.34 2 -0.68 2 0 2 C0 1.34 0 0.68 0 0 Z " fill="#4493BB" transform="translate(350,350)"/>
<path d="M0 0 C0.33 1.32 0.66 2.64 1 4 C0.34 4 -0.32 4 -1 4 C-0.67 4.99 -0.34 5.98 0 7 C-0.99 7 -1.98 7 -3 7 C-3.33 8.32 -3.66 9.64 -4 11 C-5.32 10.67 -6.64 10.34 -8 10 C-5.36 6.7 -2.72 3.4 0 0 Z " fill="#65A8C2" transform="translate(270,328)"/>
<path d="M0 0 C0.33 0.99 0.66 1.98 1 3 C-0.28725907 4.70250393 -1.62131719 6.37064759 -3 8 C-3 8.66 -3 9.32 -3 10 C-4.65 10.66 -6.3 11.32 -8 12 C-7.41463247 8.33939179 -5.916761 6.45464836 -3.4375 3.75 C-2.79683594 3.04359375 -2.15617187 2.3371875 -1.49609375 1.609375 C-0.75552734 0.81273437 -0.75552734 0.81273437 0 0 Z " fill="#59A1BF" transform="translate(292,417)"/>
<path d="M0 0 C0.33 0 0.66 0 1 0 C1.2475 0.886875 1.495 1.77375 1.75 2.6875 C3.03934768 6.10427135 4.59980129 8.2797748 7 11 C4 11 4 11 1.3125 8.8125 C-1 6 -1 6 -1.375 3.25 C-1 1 -1 1 0 0 Z " fill="#61A3BB" transform="translate(275,378)"/>
<path d="M0 0 C0 3.67718093 -0.82184858 5.07076189 -3 8 C-5.6875 9.3125 -5.6875 9.3125 -8 10 C-6.34908222 5.70761377 -3.26245434 3.1206085 0 0 Z " fill="#DB8E5D" transform="translate(169,365)"/>
<path d="M0 0 C0.99 0.33 1.98 0.66 3 1 C3 1.66 3 2.32 3 3 C3.66 3.33 4.32 3.66 5 4 C5 4.66 5 5.32 5 6 C3.02 6.33 1.04 6.66 -1 7 C-0.67 4.69 -0.34 2.38 0 0 Z " fill="#4793B4" transform="translate(254,348)"/>
<path d="M0 0 C2.125 0 2.125 0 5 1 C7.25484692 3.49775783 9.14265083 6.19801963 11 9 C8 9 8 9 5.95703125 7.28515625 C5.24933594 6.55167969 4.54164063 5.81820313 3.8125 5.0625 C3.09707031 4.33160156 2.38164062 3.60070312 1.64453125 2.84765625 C0 1 0 1 0 0 Z " fill="#6FABC3" transform="translate(338,343)"/>
<path d="M0 0 C-1.40354413 3.50886032 -2.64365823 4.4267148 -6 6 C-6.99 7.485 -6.99 7.485 -8 9 C-8.66 9 -9.32 9 -10 9 C-8.9789114 5.32408105 -8.08564783 4.0660202 -5 1.6875 C-2 0 -2 0 0 0 Z " fill="#DB814B" transform="translate(210,105)"/>
<path d="M0 0 C0.33 1.32 0.66 2.64 1 4 C0.01 4 -0.98 4 -2 4 C-1.67 4.99 -1.34 5.98 -1 7 C-1.99 7.66 -2.98 8.32 -4 9 C-4.99 8.67 -5.98 8.34 -7 8 C-4.69 5.36 -2.38 2.72 0 0 Z " fill="#DD996E" transform="translate(183,350)"/>
<path d="M0 0 C0 3.19610552 -0.54671542 4.41717626 -2 7.1875 C-2.37125 7.90292969 -2.7425 8.61835938 -3.125 9.35546875 C-3.558125 10.16951172 -3.558125 10.16951172 -4 11 C-4.33 11 -4.66 11 -5 11 C-5.33 9.02 -5.66 7.04 -6 5 C-5.01 4.67 -4.02 4.34 -3 4 C-3 3.01 -3 2.02 -3 1 C-2.01 0.67 -1.02 0.34 0 0 Z " fill="#DD8C60" transform="translate(249,244)"/>
<path d="M0 0 C5.29158974 1.40071493 7.77478044 4.85487245 11 9 C8 9 8 9 5.5 6.625 C4.675 5.75875 3.85 4.8925 3 4 C2.01 3.34 1.02 2.68 0 2 C0 1.34 0 0.68 0 0 Z " fill="#D89469" transform="translate(298,100)"/>
<path d="M0 0 C0.33 0 0.66 0 1 0 C1 1.98 1 3.96 1 6 C1.66 6 2.32 6 3 6 C2.39816251 8.02045442 1.72693904 10.02111039 1 12 C0.01 12.495 0.01 12.495 -1 13 C-1.07654536 8.48382401 -1.10228696 4.40914783 0 0 Z " fill="#CE9774" transform="translate(246,345)"/>
<path d="M0 0 C0.66 0.99 1.32 1.98 2 3 C0.71480435 5.86697492 -0.57129254 7.97607712 -3 10 C-3.66 10 -4.32 10 -5 10 C-4.67 8.35 -4.34 6.7 -4 5 C-2.68 5 -1.36 5 0 5 C0 3.35 0 1.7 0 0 Z " fill="#DA8C5E" transform="translate(152,360)"/>
<path d="M0 0 C0.66 0.99 1.32 1.98 2 3 C1.34 3.66 0.68 4.32 0 5 C-0.99 5 -1.98 5 -3 5 C-3.66 6.32 -4.32 7.64 -5 9 C-5.99 9 -6.98 9 -8 9 C-5.36 6.03 -2.72 3.06 0 0 Z " fill="#5FA5C1" transform="translate(316,273)"/>
<path d="M0 0 C0.33 0 0.66 0 1 0 C1.22262606 2.08185451 1.42757926 4.16560426 1.625 6.25 C1.74101562 7.41015625 1.85703125 8.5703125 1.9765625 9.765625 C1.99955595 12.93872091 1.69705154 14.38317244 0 17 C-0.66 17 -1.32 17 -2 17 C-1.76990234 16.21882813 -1.76990234 16.21882813 -1.53515625 15.421875 C-0.86017489 12.36721485 -0.65588882 9.36984029 -0.4375 6.25 C-0.35371094 5.07953125 -0.26992187 3.9090625 -0.18359375 2.703125 C-0.12300781 1.81109375 -0.06242188 0.9190625 0 0 Z " fill="#DDA880" transform="translate(234,69)"/>
<path d="M0 0 C3.15140423 0.34069235 4.60781561 0.58076841 6.8125 2.9375 C8 5 8 5 8 7 C8.66 7.33 9.32 7.66 10 8 C7 8 7 8 5.17578125 6.50390625 C4.56089844 5.86324219 3.94601563 5.22257812 3.3125 4.5625 C2.68988281 3.92441406 2.06726563 3.28632813 1.42578125 2.62890625 C0 1 0 1 0 0 Z " fill="#D88F61" transform="translate(155,425)"/>
<path d="M0 0 C1.87184371 3.74368742 2.23999767 4.8400791 2.125 8.75 C2.10695313 9.54921875 2.08890625 10.3484375 2.0703125 11.171875 C2.04710937 11.77515625 2.02390625 12.3784375 2 13 C1.01 13 0.02 13 -1 13 C-0.67 8.71 -0.34 4.42 0 0 Z " fill="#9DC6D2" transform="translate(365,359)"/>
<path d="M0 0 C2.93200474 2.85276137 5.64315404 5.65079784 8 9 C5 9 5 9 2.3125 6.75 C0 4 0 4 0 0 Z " fill="#68A6C1" transform="translate(333,355)"/>
<path d="M0 0 C-1.3418344 4.02550319 -3.4227573 4.88285636 -7 7 C-7.66 7 -8.32 7 -9 7 C-9 6.01 -9 5.02 -9 4 C-3 0 -3 0 0 0 Z " fill="#67A6BF" transform="translate(278,339)"/>
<path d="M0 0 C0.85537909 2.56613726 1.01396599 3.93482536 0.4375 6.625 C0.2209375 7.800625 0.2209375 7.800625 0 9 C0.66 9.66 1.32 10.32 2 11 C0.35 11 -1.3 11 -3 11 C-2.69078116 9.54096742 -2.37751201 8.08279278 -2.0625 6.625 C-1.88847656 5.81289062 -1.71445313 5.00078125 -1.53515625 4.1640625 C-1 2 -1 2 0 0 Z " fill="#D69C73" transform="translate(199,114)"/>
<path d="M0 0 C-1.01176437 3.40320742 -1.64843582 4.75725331 -4.625 6.8125 C-5.40875 7.204375 -6.1925 7.59625 -7 8 C-6.44414399 4.1090079 -4.34122117 0 0 0 Z " fill="#4796B9" transform="translate(283,372)"/>
<path d="M0 0 C2 2 2 2 2.1953125 4.1640625 C2.16050781 5.38222656 2.16050781 5.38222656 2.125 6.625 C2.10695312 7.44226563 2.08890625 8.25953125 2.0703125 9.1015625 C2.04710937 9.72804688 2.02390625 10.35453125 2 11 C1.34 11 0.68 11 0 11 C-1.28571429 3.57142857 -1.28571429 3.57142857 0 0 Z " fill="#D88452" transform="translate(233,58)"/>
<path d="M0 0 C0.33 0 0.66 0 1 0 C1.50265724 5.27790097 0.25108731 7.86225252 -3 12 C-3.33 12 -3.66 12 -4 12 C-4.1875 9.6875 -4.1875 9.6875 -4 7 C-2.5625 5.4375 -2.5625 5.4375 -1 4 C-0.28552357 1.89667109 -0.28552357 1.89667109 0 0 Z " fill="#D6895B" transform="translate(244,452)"/>
<path d="M0 0 C0.625 1.8125 0.625 1.8125 1 4 C-1 7 -1 7 -4.125 7.6875 C-5.07375 7.790625 -6.0225 7.89375 -7 8 C-6.02133662 6.85373678 -5.04205413 5.70800212 -4.0625 4.5625 C-3.51722656 3.92441406 -2.97195312 3.28632812 -2.41015625 2.62890625 C-1.63204305 1.73008851 -0.84063472 0.84063472 0 0 Z " fill="#D88A59" transform="translate(231,86)"/>
<path d="M0 0 C2.64752004 2.57784846 4.94432065 4.91648098 7 8 C5.68 8 4.36 8 3 8 C0 2.25 0 2.25 0 0 Z " fill="#6EACC4" transform="translate(351,374)"/>
<path d="M0 0 C2.475 0.99 2.475 0.99 5 2 C1.86501708 3.85776765 -0.37471432 4.20140476 -4 4 C-2.68 2.68 -1.36 1.36 0 0 Z " fill="#75B1C8" transform="translate(314,337)"/>
<path d="M0 0 C0.99 0.33 1.98 0.66 3 1 C1.68 3.64 0.36 6.28 -1 9 C-1.92131287 5.3147485 -2.15237495 4.34188735 -1 1 C-0.67 0.67 -0.34 0.34 0 0 Z " fill="#DE9063" transform="translate(239,258)"/>
<path d="M0 0 C-1.64169528 2.02054804 -3.30911778 4.02043058 -5 6 C-5.33 6 -5.66 6 -6 6 C-6 4.02 -6 2.04 -6 0 C-3.50907189 -1.24546405 -2.58919267 -0.7767578 0 0 Z " fill="#DD9C70" transform="translate(220,403)"/>
<path d="M0 0 C1 3 1 3 0.0625 5.1875 C-0.4634375 6.0846875 -0.4634375 6.0846875 -1 7 C-2.65 7 -4.3 7 -6 7 C-4.02 4.69 -2.04 2.38 0 0 Z " fill="#76B2CA" transform="translate(289,363)"/>
<path d="M0 0 C0 0.99 0 1.98 0 3 C-1.98 3.33 -3.96 3.66 -6 4 C-6.33 3.34 -6.66 2.68 -7 2 C-4 0 -4 0 0 0 Z " fill="#3690BB" transform="translate(315,263)"/>
<path d="M0 0 C3.53600465 1.91135386 5.78972846 3.62642766 8 7 C7.01 7.33 6.02 7.66 5 8 C4.731875 7.195625 4.46375 6.39125 4.1875 5.5625 C3.795625 4.716875 3.40375 3.87125 3 3 C2.01 2.67 1.02 2.34 0 2 C0 1.34 0 0.68 0 0 Z " fill="#60A1BF" transform="translate(349,202)"/>
<path d="M0 0 C0.99 0 1.98 0 3 0 C2.34 1.32 1.68 2.64 1 4 C0.34 4 -0.32 4 -1 4 C-1 4.66 -1 5.32 -1 6 C-1.66 6 -2.32 6 -3 6 C-2.42655063 3.13275314 -2.1385485 2.1385485 0 0 Z " fill="#DA824C" transform="translate(187,346)"/>
<path d="M0 0 C0.66 0 1.32 0 2 0 C2.33 0.99 2.66 1.98 3 3 C3.66 3.66 4.32 4.32 5 5 C3.02 5 1.04 5 -1 5 C-1.33 4.34 -1.66 3.68 -2 3 C-1.34 2.01 -0.68 1.02 0 0 Z " fill="#64A4BF" transform="translate(276,250)"/>
<path d="M0 0 C3.91402949 1.26941497 5.79072873 2.51167694 8 6 C5 6 5 6 3.61328125 4.6875 C2.40885417 3.125 1.20442708 1.5625 0 0 Z " fill="#DC976C" transform="translate(176,447)"/>
<path d="M0 0 C0.625 1.875 0.625 1.875 1 4 C0.34 4.66 -0.32 5.32 -1 6 C-3.125 5.625 -3.125 5.625 -5 5 C-3.35 3.35 -1.7 1.7 0 0 Z " fill="#DA8856" transform="translate(175,359)"/>
<path d="M0 0 C2.0625 0.4375 2.0625 0.4375 4 1 C1.03 3.475 1.03 3.475 -2 6 C-1.125 1.125 -1.125 1.125 0 0 Z " fill="#DDA074" transform="translate(190,322)"/>
<path d="M0 0 C0.33 0 0.66 0 1 0 C1.36923077 7.50769231 1.36923077 7.50769231 -0.5 10 C-0.995 10.33 -1.49 10.66 -2 11 C-2 9.02 -2 7.04 -2 5 C-1.67 5 -1.34 5 -1 5 C-0.67 3.35 -0.34 1.7 0 0 Z " fill="#DA7A48" transform="translate(264,313)"/>
<path d="M0 0 C0.33 1.32 0.66 2.64 1 4 C0.01 4.33 -0.98 4.66 -2 5 C-2 5.66 -2 6.32 -2 7 C-2.99 6.67 -3.98 6.34 -5 6 C-3.35 4.02 -1.7 2.04 0 0 Z " fill="#6BA8C1" transform="translate(291,303)"/>
<path d="M0 0 C0.66 0.33 1.32 0.66 2 1 C0.92598892 3.91517292 0.22189824 5.77810176 -2 8 C-2 5.69 -2 3.38 -2 1 C-1.34 0.67 -0.68 0.34 0 0 Z " fill="#DD8756" transform="translate(252,236)"/>
<path d="M0 0 C3.5625 0.25 3.5625 0.25 7 1 C7.33 1.66 7.66 2.32 8 3 C4.7 2.67 1.4 2.34 -2 2 C-1.34 1.34 -0.68 0.68 0 0 Z " fill="#5D9EB4" transform="translate(326,135)"/>
<path d="M0 0 C2.97 0.495 2.97 0.495 6 1 C6 2.65 6 4.3 6 6 C3.97945196 4.35830472 1.97956942 2.69088222 0 1 C0 0.67 0 0.34 0 0 Z " fill="#71AFC8" transform="translate(282,475)"/>
<path d="M0 0 C1.65 0 3.3 0 5 0 C3.35 1.98 1.7 3.96 0 6 C-1.125 2.25 -1.125 2.25 0 0 Z " fill="#E19E72" transform="translate(230,470)"/>
<path d="M0 0 C1.70884005 1.62339805 3.37446717 3.29319053 5 5 C5 5.66 5 6.32 5 7 C3.68 6.67 2.36 6.34 1 6 C0.67 4.02 0.34 2.04 0 0 Z " fill="#76B2C9" transform="translate(358,382)"/>
<path d="M0 0 C0.99 0 1.98 0 3 0 C1.92598892 2.91517292 1.22189824 4.77810176 -1 7 C-1.04254356 5.00045254 -1.04080783 2.99958364 -1 1 C-0.67 0.67 -0.34 0.34 0 0 Z " fill="#DC9066" transform="translate(258,224)"/>
<path d="M0 0 C0.99 0.33 1.98 0.66 3 1 C2.6875 2.9375 2.6875 2.9375 2 5 C1.01 5.33 0.02 5.66 -1 6 C-0.67 4.02 -0.34 2.04 0 0 Z " fill="#E16628" transform="translate(149,220)"/>
<path d="M0 0 C1 3 1 3 0.0625 5.1875 C-0.4634375 6.0846875 -0.4634375 6.0846875 -1 7 C-2.32 6.67 -3.64 6.34 -5 6 C-3.35 4.02 -1.7 2.04 0 0 Z " fill="#67A6C1" transform="translate(306,213)"/>
<path d="M0 0 C2.475 0.99 2.475 0.99 5 2 C5 2.66 5 3.32 5 4 C2.69 4 0.38 4 -2 4 C-1.34 2.68 -0.68 1.36 0 0 Z " fill="#3094C8" transform="translate(176,140)"/>
</svg>
